<svg width="490.35" height="490.35" xmlns="http://www.w3.org/2000/svg">

 <g>
  <title>background</title>
  <rect fill="none" id="canvas_background" height="402" width="582" y="-1" x="-1"/>
 </g>
 <g>
  <title>Layer 1</title>
  <g transform="rotate(-90 245.17500305175784,245.17500305175784) " id="svg_1">
   <path id="svg_2" d="m468.675,54.775l-33,-33c-28.9,-28.9 -75.9,-28.9 -104.8,0l-75.2,75.2c-28.9,28.9 -28.9,75.9 0,104.8l1.9,1.9l-53.9,53.9l-2,-2c-28.9,-28.9 -75.9,-28.9 -104.8,0l-75.2,75.2c-28.9,28.9 -28.9,75.9 0,104.8l33,33c28.9,28.9 75.9,28.9 104.8,0l75.2,-75.2c28.9,-28.9 28.9,-75.9 0,-104.8l-1.9,-1.9l53.9,-53.9l2,2c28.9,28.9 75.9,28.9 104.8,0l75.2,-75.2c28.9,-28.8 28.9,-75.9 0,-104.8zm-263,262.8c12.9,12.9 12.9,33.9 0,46.9l-75.2,75.2c-12.9,12.9 -33.9,12.9 -46.9,0l-33,-33c-12.9,-12.9 -12.9,-33.9 0,-46.9l75.2,-75.2c12.9,-12.9 33.9,-12.9 46.9,0l2,2l-32.6,32.6c-8.3,8.3 -8.3,20.8 0,29.2c4.2,4.2 9.4,6.3 14.6,6.3s10.4,-2.1 14.6,-6.3l32.6,-32.6l1.8,1.8zm234,-186.9l-75.2,75.2c-12.9,12.9 -33.9,12.9 -46.9,0l-2,-2l32.6,-32.6c8.3,-8.3 8.3,-20.8 0,-29.2s-20.8,-8.3 -29.2,0l-32.6,32.6l-1.9,-1.9c-12.9,-12.9 -12.9,-33.9 0,-46.9l75.2,-75.2c12.9,-12.9 33.9,-12.9 46.9,0l33,33c13.1,13 13.1,34 0.1,47z"/>
  </g>
  <g id="svg_3"/>
  <g id="svg_4"/>
  <g id="svg_5"/>
  <g id="svg_6"/>
  <g id="svg_7"/>
  <g id="svg_8"/>
  <g id="svg_9"/>
  <g id="svg_10"/>
  <g id="svg_11"/>
  <g id="svg_12"/>
  <g id="svg_13"/>
  <g id="svg_14"/>
  <g id="svg_15"/>
  <g id="svg_16"/>
  <g id="svg_17"/>
 </g>
</svg>